<?xml version="1.0" encoding="UTF-8" standalone="no"?>
<svg xmlns="http://www.w3.org/2000/svg" viewBox="0 0 2600 880" version="1.1"><rect width="2600" height="880" rx="105" ry="105" x="0" y="0" id="background" fill="#415c78"/><g fill="#fff"><path d="m1961 383.4-45.6 0 0 -19.2c0 -1.6-0.8 -2.4-2.4 -2.4 l-151.3 0 c-1.6 0-2.4 0.8-2.4 2.4l0 151.65 c-0 1.6 0.8 2.4 2.4 2.4l151.3 0c1.6 0 2.4 -0.8 2.4 -2.4l0 -46.66-55.9 0 0 -45.3 101.56 0 0 91.95c0 6.6-1.26 12.9-3.8 18.9-2.5 5.7-5.94 10.75-10.3 15.1-4.35 4.1-9.5 7.44-15.44 9.95-5.7 2.5-11.9 3.8-18.5 3.8 l-151.3 0 c-6.6 0-12.9 -1.26-18.9 -3.8-5.7 -2.5-10.75 -5.8-15.1 -9.95-4.1 -4.35-7.44 -9.4-9.95 -15.1-2.5 -5.95-3.8 -12.24-3.8 -18.9l0 -151.65c0 -6.6 1.26 -12.8 3.8 -18.5 2.5 -5.95 5.8 -11 9.95 -15.1 4.35 -4.35 9.4 -7.8 15.1 -10.3 5.95 -2.5 12.24 -3.8 18.9 -3.8l151.3 0c6.6 0 12.8 1.26 18.5 3.8 5.95 2.5 11.1 5.95 15.44 10.3 4.35 4.1 7.8 9.15 10.3 15.1 2.5 5.7 3.8 11.9 3.8 18.5l0 19.2 m-330.44 -66.9 45.6 0 0 199.34c0 6.6-1.26 12.9-3.8 18.9-2.5 5.7-5.95 10.75-10.3 15.1-4.35 4.1-9.5 7.4-15.44 9.95-5.7 2.5-11.8 3.8-18.18 3.8 l-151.65 0 c-6.6 0-12.9 -1.26-18.9 -3.8-5.7 -2.5-10.75 -5.8-15.1 -9.95-4.1 -4.35-7.4 -9.4-9.95 -15.1-2.5 -5.95-3.8 -12.24-3.8 -18.9l0 -199.34 45.3 0 0 199.34 c-0 1.6 0.8 2.4 2.4 2.4l151.65 0c1.4 0 2.06 -0.8 2.06 -2.4l0 -199.34 m-467.74 -0.34 45.3 0 0 202.08 201.74 0 0 45.3-247.0 0 0 -247.4 m-68.7 74.45 34.8 0 0 172.9-31.95 0 0 -126.8-65.56 78.05-65.8 -78.05 0 126.8-31.7 0 0 -172.9 34.58 0 62.9 74.9 62.7 -74.9 m-221.18 0c4.64 0 9 0.9 13 2.64 4.16 1.76 7.76 4.16 10.8 7.2 3.04 2.9 5.44 6.4 7.2 10.6 1.76 4 2.64 8.3 2.64 13l0 139.54-31.94 0 0 -58.1-109.3 0 0 58.1-31.7 0 0 -139.54c0 -4.64 0.9 -9 2.64 -13 1.76 -4.16 4.08 -7.7 7 -10.6 3.04 -3.04 6.56 -5.44 10.6 -7.2 4.16 -1.76 8.56 -2.64 13.2 -2.64l105.9 0m1.7 83.1 0 -49.7c0 -1.1-0.56 -1.7-1.7 -1.7 l-105.9 0 c-1.1 0-1.7 0.56-1.7 1.7l0 49.7 109.3 0 m-165.86 -51.4-127.05 0 0 38.9 102.3 0 0 31.7-102.3 0 0 38.9 127.05 0 0 31.7-159 0 0 -172.9 159 0 0 31.7 m-177.7 -31.7 0 31.7-70.4 0 0 141.2-31.94 0 0 -141.2-70.6 0 0 -31.7 172.9 0 m-195.3 -7.55-45.6 0 0 -18.9c0 -1.6-0.7 -2.4-2.06 -2.4 l-151.65 0 c-1.6 0-2.4 0.8-2.4 2.4l0 50.8c0 1.6 0.8 2.4 2.4 2.4l151.65 0c6.4 0 12.46 1.26 18.18 3.8 5.95 2.5 11.1 5.95 15.44 10.3 4.35 4.1 7.8 9.15 10.3 15.1 2.5 5.7 3.8 11.9 3.8 18.5l0 50.8c0 6.6-1.26 12.9-3.8 18.9-2.5 5.7-5.95 10.75-10.3 15.1-4.35 4.1-9.5 7.44-15.44 9.95-5.7 2.5-11.8 3.8-18.18 3.8 l-151.65 0 c-6.6 0-12.9 -1.26-18.9 -3.8-5.7 -2.5-10.75 -5.8-15.1 -9.95-4.1 -4.35-7.4 -9.4-9.95 -15.1-2.5 -5.95-3.8 -12.24-3.8 -18.9l0 -18.9 45.3 0 0 18.9c0 1.6 0.8 2.4 2.4 2.4l151.65 0c1.4 0 2.06 -0.8 2.06 -2.4l0 -50.8c0 -1.6-0.7 -2.4-2.06 -2.4 l-151.65 0 c-6.6 0-12.9 -1.26-18.9 -3.8-5.7 -2.5-10.75 -5.8-15.1 -9.95-4.1 -4.35-7.44 -9.4-9.95 -15.1-2.5 -5.95-3.8 -12.24-3.8 -18.9l0 -50.8c0 -6.6 1.26 -12.8 3.8 -18.5 2.5 -5.95 5.8 -11 9.95 -15.1 4.35 -4.35 9.4 -7.8 15.1 -10.3 5.95 -2.5 12.24 -3.8 18.9 -3.8l151.65 0c6.4 0 12.46 1.26 18.18 3.8 5.95 2.5 11.1 5.95 15.44 10.3 4.35 4.1 7.8 9.15 10.3 15.1 2.5 5.7 3.8 11.9 3.8 18.5l0 18.9" id="steamlug"/><path d="m2300.1 34.5c79.8 0 126.6 48.7 135.4 114.3 8.8 65.6-5.4 77.7 16.7 144.9 22.1 67.2 121.1 182.4 118.8 288.7-0.7 33.1-4.5 61.7-11.2 86.8-8.1-13.5-20.2-23-29-27.1-6.9-3.2-10.2-4.7-11.7-5.3-0.2-1.7-1.1-5.6-2.7-13.2-2.2-10.5-10.5-26.9-24.7-37.7 0.1-3.3 0.3-6.5 0.4-9.9 1.6-82.4-83.6-171.8-99.2-223.9-15.7-52.1-8.9-57.5-11.4-70.4-2.6-13-12.6-28-27-40.1-1.4-1.1-2.7-1.6-4.1-1.7-13.1-0.1-26.2 47.6-51.6 47.6-25.4 0-38.6-58.2-53.2-46-14.4 12-24.4 27.1-27 40.1-2.6 13 4.2 18.3-11.4 70.4-15.7 52.1-100.8 141.4-99.2 223.9 0.1 3.4 0.2 6.6 0.4 9.8-14.3 10.8-22.7 27.3-24.8 37.8-1.6 7.6-2.5 11.5-2.7 13.2-1.5 0.6-4.9 2.2-11.7 5.4-8.8 4.1-20.8 13.6-28.9 27.1-6.7-25.1-10.5-53.7-11.3-86.9-2.3-106.3 96.8-221.5 118.9-288.7 22.1-67.2 7.8-79.2 16.6-144.9 8.8-65.6 55.8-114.3 135.5-114.3zm156.8 568.9c3.4 0.2 7.2 1.1 11.4 2.9 27.1 11.2 15.2 34.6 27.1 49.5 11.8 14.8 35.6 7.7 43.1 38 7.5 30.3-107.6 179.3-169.4 153.9-61.9-25.4-38.9-212.3-12.2-228.6 26.7-16.3 38.5 5.5 57.3 3.3 15.9-1.9 24.2-20.1 42.7-19zm-311.6 0c17.1 0.3 25.4 17.2 40.7 19 18.9 2.2 30.7-19.6 57.3-3.3 26.7 16.3 49.7 203.2-12.2 228.6-61.9 25.4-176.9-123.6-169.4-153.9 7.5-30.3 31.2-23.2 43-38 11.8-14.8-0.1-38.3 27.1-49.5 5.1-2.1 9.5-2.9 13.5-2.9zm158.2 182.7c1.4 8.7 3.2 17.3 5.5 25.6 3.9 13.5 9.5 27 17.9 38.5-8.7 0.5-17.6 0.6-26.8 0.2-9.2 0.4-18.1 0.4-26.8-0.2 8.4-11.5 14-25 17.9-38.5 2.4-8.3 4.2-16.8 5.5-25.6 1.1 0 2.2 0.1 3.3 0.1 1.1 0 2.2-0.1 3.3-0.1z" id="tux"/><path d="m2368.2 454.6c0 8.1-2.9 15.1-8.6 20.8-5.7 5.8-12.6 8.6-20.8 8.6-8.1 0-15.1-2.9-20.8-8.6-5.7-5.7-8.6-12.7-8.6-20.8 0-8.1 2.9-15.1 8.6-20.8 5.8-5.7 12.7-8.6 20.8-8.6 8.1 0 15.1 2.9 20.8 8.6 5.8 5.8 8.6 12.7 8.6 20.8zm-7.4 0c0-6.1-2.1-11.3-6.4-15.6-4.3-4.3-9.5-6.4-15.5-6.4-6.1 0-11.3 2.1-15.6 6.4-4.3 4.3-6.4 9.5-6.4 15.6 0 6.1 2.1 11.3 6.4 15.6 4.3 4.3 9.5 6.5 15.6 6.5 6.1 0 11.3-2.1 15.6-6.4 4.3-4.3 6.5-9.5 6.5-15.5zm-176.4 20.8c2-28.2 13.2-52.5 33.7-73 22.7-22.7 50.1-34 82.2-34 32.1 0 59.5 11.4 82.2 34.1 22.7 22.7 34.1 50.1 34.1 82.2 0 32.1-11.3 59.5-34 82.2-22.7 22.7-50.1 34.1-82.2 34.1-32.1 0-59.5-11.3-82.2-34-15-15-25-32-30.1-51l45.2 18.8c1.2 6.4 4.1 12 9 16.9 6.4 6.4 14.1 9.6 23.1 9.6 9.1 0 16.8-3.2 23.1-9.6 6.4-6.3 9.6-14.1 9.6-23.1 0-0.7 0-1.4 0-2l38.7-28.2c0.7 0 1.5 0.1 2.2 0.1 12 0 22.3-4.2 30.8-12.7 8.5-8.5 12.8-18.7 12.8-30.8 0-12-4.3-22.3-12.8-30.8-8.5-8.5-18.7-12.7-30.7-12.7-12.1 0-22.3 4.2-30.8 12.7-8.5 8.5-12.7 18.8-12.7 30.8 0 0.1 0 0.1 0 0.2l-28.1 40.9c-0.6 0-1.2 0-1.8 0-7 0-13.3 1.9-18.7 5.8l-5.9-2.4c-0.6-0.3-1.3-0.5-1.9-0.8l-54.3-22.8zm58.3 63.1 16.7 7c1.6 0.4 3.2 0.7 4.9 0.7 4.9 0 9.1-1.7 12.6-5.2 3.5-3.5 5.2-7.7 5.2-12.6 0-4.9-1.7-9.1-5.2-12.6-1.9-1.9-3.9-3.2-6.2-4.1l-14.8-6.2c2.9-1.2 6.1-1.8 9.5-1.8 6.9 0 12.7 2.4 17.5 7.3 4.8 4.8 7.3 10.7 7.3 17.5 0 6.9-2.4 12.7-7.2 17.5-4.8 4.8-10.6 7.3-17.5 7.3-6.8 0-12.7-2.4-17.5-7.2-2.2-2.2-3.9-4.6-5.1-7.3z" id="steam"/></g></svg>
