<?xml version="1.0" encoding="UTF-8" standalone="no"?>
<svg xmlns="http://www.w3.org/2000/svg" viewBox="0 0 2600 880" version="1.1">
  <rect width="2600" height="880" rx="105" ry="105" x="0" y="0" style="fill:#415c78" />
  <path d="m 1960.981,383.37543 -45.6315,0 0,-19.21329 c -3e-4,-1.60091 -0.8008,-2.40146 -2.4017,-2.40166 l -151.3046,0 c -1.6012,2e-4 -2.4018,0.80075 -2.4017,2.40166 l 0,151.64774 c -10e-5,1.60115 0.8005,2.4017 2.4017,2.40166 l 151.3046,0 c 1.6009,4e-5 2.4014,-0.80051 2.4017,-2.40166 l 0,-46.66085 -55.9244,0 0,-45.28846 101.5559,0 0,91.94931 c -3e-4,6.6332 -1.2583,12.92325 -3.774,18.87019 -2.5163,5.71826 -5.9473,10.75031 -10.2929,15.09615 -4.3461,4.11715 -9.4925,7.43372 -15.4392,9.94974 -5.7185,2.51603 -11.8942,3.77404 -18.5271,3.77404 l -151.3046,0 c -6.6333,0 -12.9233,-1.25801 -18.8702,-3.77404 -5.7183,-2.51602 -10.7504,-5.83259 -15.0962,-9.94974 -4.1172,-4.34584 -7.4337,-9.37789 -9.9497,-15.09615 -2.5161,-5.94694 -3.7741,-12.23699 -3.7741,-18.87019 l 0,-151.64774 c 0,-6.63295 1.258,-12.80865 3.7741,-18.5271 2.516,-5.94674 5.8325,-10.97879 9.9497,-15.09615 4.3458,-4.34563 9.3779,-7.77657 15.0962,-10.29283 5.9469,-2.51578 12.2369,-3.7738 18.8702,-3.77404 l 151.3046,0 c 6.6329,2.4e-4 12.8086,1.25826 18.5271,3.77404 5.9467,2.51626 11.0931,5.9472 15.4392,10.29283 4.3456,4.11736 7.7766,9.14941 10.2929,15.09615 2.5157,5.71845 3.7737,11.89415 3.774,18.5271 l 0,19.21329 m -330.4429,-66.90341 45.6316,0 0,199.33786 c -3e-4,6.6332 -1.2583,12.92325 -3.774,18.87019 -2.5163,5.71826 -5.9473,10.75031 -10.2929,15.09615 -4.3461,4.11715 -9.4925,7.43372 -15.4392,9.94974 -5.7185,2.51603 -11.7798,3.77404 -18.184,3.77404 l -151.6478,0 c -6.6332,0 -12.9232,-1.25801 -18.8702,-3.77404 -5.7182,-2.51602 -10.7503,-5.83259 -15.0961,-9.94974 -4.1172,-4.34584 -7.4337,-9.37789 -9.9497,-15.09615 -2.5161,-5.94694 -3.7741,-12.23699 -3.7741,-18.87019 l 0,-199.33786 45.2885,0 0,199.33786 c -10e-5,1.60115 0.8005,2.4017 2.4016,2.40166 l 151.6478,0 c 1.3721,4e-5 2.0583,-0.80051 2.0585,-2.40166 l 0,-199.33786 m -467.7394,-0.3431 45.2884,0 0,202.08262 201.7396,0 0,45.28846 -247.028,0 0,-247.37108 m -68.7267,74.4515 34.8241,0 0,172.91958 -31.9421,0 0,-126.80769 -65.5653,78.05398 -65.80554,-78.05398 0,126.80769 -31.70192,0 0,-172.91958 34.58391,0 62.92355,74.93182 62.6833,-74.93182 m -221.17796,0 c 4.64305,1.8e-4 8.96604,0.88079 12.96897,2.64183 4.16271,1.76139 7.76519,4.16305 10.80747,7.20498 3.04193,2.88216 5.44358,6.40459 7.20498,10.56731 1.76104,4.00292 2.64164,8.3259 2.64183,12.96897 l 0,139.53649 -31.94209,0 0,-58.12019 -109.27556,0 0,58.12019 -31.70192,0 0,-139.53649 c -2e-5,-4.64307 0.88059,-8.96605 2.64182,-12.96897 1.7612,-4.16272 4.08281,-7.68515 6.96482,-10.56731 3.04208,-3.04193 6.56451,-5.44359 10.56731,-7.20498 4.16284,-1.76104 8.56588,-2.64165 13.20913,-2.64183 l 105.91324,0 m 1.68116,83.09747 0,-49.71438 c -1.5e-4,-1.12063 -0.56054,-1.68102 -1.68116,-1.68116 l -105.91324,0 c -1.12082,1.4e-4 -1.68121,0.56053 -1.68116,1.68116 l 0,49.71438 109.27556,0 m -165.86468,-51.39554 -127.04785,0 0,38.9069 102.31075,0 0,31.70192 -102.31075,0 0,38.90691 127.04785,0 0,31.70192 -158.98994,0 0,-172.91958 158.98994,0 0,31.70193 m -177.66659,-31.70193 0,31.70193 -70.36866,0 0,141.21765 -31.94208,0 0,-141.21765 -70.60883,0 0,-31.70193 172.91957,0 m -195.31184,-7.54809 -45.63156,0 0,-18.87019 c -2.2e-4,-1.60091 -0.68641,-2.40146 -2.05856,-2.40166 l -151.64774,0 c -1.60117,2e-4 -2.40172,0.80075 -2.40166,2.40166 l 0,50.77798 c -6e-5,1.60125 0.80049,2.4018 2.40166,2.40166 l 151.64774,0 c 6.4042,1.4e-4 12.46553,1.25815 18.184,3.77404 5.94673,2.51616 11.09314,5.9471 15.43925,10.29283 4.34561,4.11726 7.77655,9.14931 10.29283,15.09615 2.51576,5.71835 3.77378,11.89405 3.77404,18.5271 l 0,50.77798 c -2.6e-4,6.6332 -1.25828,12.92325 -3.77404,18.87019 -2.51628,5.71826 -5.94722,10.75031 -10.29283,15.09615 -4.34611,4.11715 -9.49252,7.43372 -15.43925,9.94974 -5.71847,2.51603 -11.7798,3.77404 -18.184,3.77404 l -151.64774,0 c -6.63322,0 -12.92327,-1.25801 -18.87019,-3.77404 -5.71828,-2.51602 -10.75033,-5.83259 -15.09616,-9.94974 -4.117157,-4.34584 -7.433733,-9.37789 -9.949735,-15.09615 -2.516044,-5.94694 -3.774056,-12.23699 -3.774038,-18.87019 l 0,-18.8702 45.288463,0 0,18.8702 c -6e-5,1.60115 0.80049,2.4017 2.40166,2.40166 l 151.64774,0 c 1.37215,4e-5 2.05834,-0.80051 2.05856,-2.40166 l 0,-50.77798 c -2.2e-4,-1.60101 -0.68641,-2.40156 -2.05856,-2.40166 l -151.64774,0 c -6.63322,10e-5 -12.92327,-1.25791 -18.87019,-3.77404 -5.71828,-2.51592 -10.75033,-5.83249 -15.09616,-9.94974 -4.117157,-4.34574 -7.433733,-9.37779 -9.949735,-15.09615 -2.516044,-5.94684 -3.774056,-12.23689 -3.774038,-18.87019 l 0,-50.77798 c -1.8e-5,-6.63295 1.257994,-12.80865 3.774038,-18.5271 2.516002,-5.94674 5.832578,-10.97879 9.949735,-15.09615 4.34583,-4.34563 9.37788,-7.77657 15.09616,-10.29283 5.94692,-2.51578 12.23697,-3.7738 18.87019,-3.77404 l 151.64774,0 c 6.4042,2.4e-4 12.46553,1.25826 18.184,3.77404 5.94673,2.51626 11.09314,5.9472 15.43925,10.29283 4.34561,4.11736 7.77655,9.14941 10.29283,15.09615 2.51576,5.71845 3.77378,11.89415 3.77404,18.5271 l 0,18.87019" style="fill:#ffffff" id="steamlug" />
  <path d="m 2300.1083,34.521551 c 79.7821,0 126.6193,48.670654 135.4405,114.298019 8.8209,65.62738 -5.3814,77.65323 16.7106,144.85766 22.0921,67.20326 121.1381,182.40651 118.8221,288.69931 -0.7212,33.09273 -4.532,61.74649 -11.1714,86.78525 -8.14,-13.48708 -20.2004,-22.99226 -28.99,-27.05129 -6.8619,-3.1677 -10.1785,-4.69097 -11.7254,-5.26235 -0.2245,-1.70026 -1.0943,-5.5711 -2.6773,-13.2026 -2.1744,-10.48099 -10.5081,-26.89175 -24.743,-37.66849 0.1448,-3.2649 0.302,-6.49611 0.3693,-9.8786 1.6441,-82.44377 -83.565,-171.76123 -99.2492,-223.88763 -15.6837,-52.12463 -8.8611,-57.49246 -11.4483,-70.44363 -2.5869,-12.95116 -12.5751,-28.03717 -26.9588,-40.06893 -1.3703,-1.1469 -2.7039,-1.64914 -4.0623,-1.66185 -13.1134,-0.12408 -26.2362,47.61563 -51.6094,47.63957 -25.3732,0.0295 -38.5725,-58.1962 -53.179,-45.97772 -14.3838,12.03205 -24.372,27.11777 -26.9589,40.06893 -2.5871,12.95117 4.236,18.319 -11.4482,70.44363 -15.6843,52.12581 -100.8009,141.44357 -99.1568,223.88763 0.068,3.35088 0.2275,6.55048 0.3693,9.78642 -14.2981,10.77497 -22.656,27.25427 -24.8352,37.76067 -1.583,7.6315 -2.453,11.50234 -2.6776,13.2026 -1.5422,0.57048 -4.8727,2.1821 -11.7251,5.35483 -8.7925,4.07115 -20.7806,13.55859 -28.8978,27.05129 -6.6571,-25.06476 -10.5415,-53.73715 -11.2636,-86.87773 -2.3159,-106.29281 96.8222,-221.49635 118.9143,-288.69931 22.092,-67.20443 7.7975,-79.23029 16.6184,-144.85766 8.821,-65.627365 55.7506,-114.298019 135.5328,-114.298019 z m 156.7674,568.905029 c 3.4256,0.19795 7.211,1.11972 11.4482,2.86193 27.1178,11.15282 15.2051,34.6485 27.0513,49.48605 11.8456,14.83844 35.6312,7.69117 43.1155,38.0378 7.4841,30.34721 -107.5599,179.34456 -169.4157,153.90548 -61.8561,-25.43908 -38.8559,-212.2949 -12.1869,-228.59605 26.6684,-16.30086 38.4756,5.53446 57.3335,3.3237 15.9112,-1.86541 24.1551,-20.08839 42.6541,-19.01891 z m -311.5959,0 c 17.111,0.29544 25.3933,17.22263 40.7151,19.01891 18.8579,2.21076 30.6651,-19.62456 57.3335,-3.3237 26.669,16.30115 49.6692,203.15666 -12.1869,228.59605 -61.8558,25.43908 -176.8998,-123.55827 -169.4157,-153.90548 7.4843,-30.34663 31.1777,-23.19936 43.0233,-38.0378 11.8462,-14.83755 -0.068,-38.33323 27.051,-49.48605 5.0848,-2.09053 9.5309,-2.92987 13.4797,-2.86193 z m 158.1521,182.71051 c 1.3517,8.73259 3.1663,17.3021 5.5395,25.57411 3.8682,13.48206 9.5141,26.99308 17.911,38.49956 -8.7024,0.53947 -17.622,0.61038 -26.7742,0.18317 -9.1521,0.42631 -18.0687,0.35511 -26.7741,-0.18317 8.3969,-11.50648 14.0428,-25.0175 17.911,-38.49956 2.3732,-8.27201 4.1878,-16.84152 5.5395,-25.57411 1.1076,0.0295 2.2057,0.0916 3.3236,0.0916 1.118,0 2.2161,-0.0709 3.3237,-0.0916 z" style="fill:#ffffff;stroke-width:15" id="tux" />
  <path d="m 2368.2229,454.59633 c 0,8.1335 -2.875,15.06649 -8.625,20.8 -5.717,5.75 -12.6415,8.625 -20.775,8.625 -8.1335,0 -15.075,-2.875 -20.825,-8.625 -5.7335,-5.73351 -8.6,-12.6665 -8.6,-20.8 0,-8.13351 2.8665,-15.075 8.6,-20.825 5.75,-5.7335 12.692,-8.6 20.825,-8.6 8.133,0 15.058,2.86649 20.775,8.6 5.75,5.75 8.625,12.6915 8.625,20.825 z m -7.4,0 c 0,-6.0835 -2.15,-11.275 -6.45,-15.575 -4.283,-4.2835 -9.467,-6.425 -15.55,-6.425 -6.0835,0 -11.275,2.1415 -15.575,6.425 -4.283,4.3 -6.425,9.4915 -6.425,15.575 0,6.0835 2.1415,11.2665 6.425,15.55 4.3005,4.29999 9.4915,6.45 15.575,6.45 6.083,0 11.2665,-2.15 15.55,-6.45 4.3,-4.2835 6.45,-9.4665 6.45,-15.55 z m -176.4,20.825 c 1.9835,-28.1835 13.225,-52.525 33.725,-73.025 22.7,-22.7 50.1,-34.05 82.2,-34.05 32.1,0 59.5,11.35 82.2,34.05 22.6995,22.7 34.05,50.1 34.05,82.2 0,32.1 -11.35,59.5 -34.05,82.2 -22.7,22.7 -50.1,34.05 -82.2,34.05 -32.1,0 -59.5,-11.35 -82.2,-34.05 -14.967,-14.967 -25,-31.975 -30.1,-51.0255 l 45.175,18.825 c 1.15,6.4 4.1415,12.0165 8.975,16.85 6.3835,6.3835 14.0915,9.5745 23.125,9.5745 9.05,0 16.75,-3.1915 23.1,-9.5745 6.3835,-6.35 9.575,-14.0505 9.575,-23.1 0,-0.683 -0.016,-1.3585 -0.05,-2.025 l 38.65,-28.25 c 0.7335,0.033 1.475,0.05 2.225,0.05 12.033,0 22.283,-4.25 30.75,-12.75 8.5165,-8.483 12.775,-18.741 12.775,-30.7745 0,-12.0335 -4.2585,-22.3 -12.775,-30.8 -8.467,-8.4835 -18.717,-12.725 -30.75,-12.725 -12.0505,0 -22.325,4.2415 -30.825,12.725 -8.483,8.5 -12.725,18.7665 -12.725,30.8 0,0.0665 0,0.1335 0,0.2 l -28.125,40.925 c -0.6,-0.033 -1.2085,-0.05 -1.825,-0.05 -7.0495,0 -13.287,1.946 -18.7125,5.8375 l -5.9125,-2.4255 c -0.645,-0.269 -1.291,-0.54 -1.9375,-0.8125 l -54.3375,-22.8495 z m 58.25,63.125 16.725,6.9745 c 1.55,0.4335 3.1915,0.6505 4.925,0.6505 4.9335,0 9.1335,-1.7415 12.6,-5.22501 3.4835,-3.46699 5.225,-7.667 5.225,-12.6 0,-4.9165 -1.7415,-9.1165 -5.225,-12.6 -1.863,-1.8765 -3.938,-3.2475 -6.225,-4.1125 l -14.825,-6.23749 c 2.9005,-1.1995 6.0505,-1.8 9.45,-1.8 6.85,0 12.6835,2.4165 17.5,7.25 4.8335,4.8335 7.25,10.6665 7.25,17.5 0,6.85 -2.4165,12.683 -7.25,17.5 -4.8165,4.8335 -10.65,7.25 -17.5,7.25 -6.85,0 -12.6915,-2.4165 -17.525,-7.25 -2.2165,-2.217 -3.925,-4.65 -5.125,-7.3 z" id="steamlogo" style="fill:#ffffff" />
</svg>
