<?xml version="1.0" encoding="UTF-8" standalone="no"?>
<svg xmlns="http://www.w3.org/2000/svg" id="svg2" viewBox="0 0 2600 880" version="1.1">
  <rect width="2600" height="880" rx="104.34782" ry="104.34782" x="0" y="0" style="fill:#415c78" />
  <text x="71.206291" y="563.5" xml:space="preserve" style="font-weight:bold;font-size:343.09442139px;line-height:125%;font-family:Orbitron;letter-spacing:0px;word-spacing:0px;fill:#ffffff"><tspan x="71.206291" y="563.5" >S<tspan style="font-size:240.16607666px">TEAM</tspan>LUG</tspan></text>
  <g id="tux" transform="translate(1914.3479,-47.765855)">
    <path style="color:#000000;overflow:visible;fill:#ffffff;stroke-width:15" id="path4372-7" d="m 385.76035,82.287406 c 79.78217,0 126.61932,48.670654 135.44054,114.298024 8.82092,65.62737 -5.38143,77.65323 16.71063,144.85766 22.09206,67.20325 121.13803,182.4065 118.82209,288.69931 -0.72117,33.09273 -4.53204,61.74649 -11.17145,86.78525 -8.13994,-13.48709 -20.20036,-22.99226 -28.98996,-27.0513 -6.86188,-3.1677 -10.17848,-4.69097 -11.72539,-5.26235 -0.22453,-1.70026 -1.09431,-5.5711 -2.67727,-13.2026 -2.17444,-10.48099 -10.50818,-26.89175 -24.74303,-37.66849 0.14476,-3.2649 0.30194,-6.49611 0.36929,-9.8786 1.64413,-82.44377 -83.56496,-171.76123 -99.24924,-223.88763 -15.68368,-52.12463 -8.8611,-57.49246 -11.44827,-70.44363 -2.58686,-12.95116 -12.57507,-28.03717 -26.95882,-40.06893 -1.37024,-1.1469 -2.70385,-1.64914 -4.06228,-1.66185 -13.11337,-0.12408 -26.23618,47.61563 -51.60938,47.63957 -25.37321,0.0295 -38.57254,-58.1962 -53.17906,-45.97772 -14.38375,12.03205 -24.37196,27.11777 -26.95882,40.06893 -2.58716,12.95117 4.23601,18.319 -11.44827,70.44363 -15.68427,52.12581 -100.80088,141.44357 -99.15677,223.88763 0.0679,3.35088 0.2275,6.55048 0.36931,9.78642 -14.29807,10.77497 -22.65605,27.25427 -24.83521,37.76067 -1.58296,7.6315 -2.45303,11.50234 -2.67756,13.2026 -1.5422,0.57048 -4.87269,2.18211 -11.7251,5.35483 -8.79256,4.07115 -20.78059,13.55859 -28.89779,27.0513 -6.65713,-25.06477 -10.54157,-53.73715 -11.26362,-86.87773 -2.31594,-106.29281 96.82221,-221.49635 118.91427,-288.69931 22.09205,-67.20443 7.79752,-79.23029 16.61845,-144.85766 8.82092,-65.62737 55.75055,-114.298024 135.53271,-114.298024 z m 156.7674,568.905024 c 3.42562,0.19795 7.21109,1.11972 11.44827,2.86193 27.11777,11.15282 15.20507,34.6485 27.0513,49.48605 11.84563,14.83844 35.63115,7.69117 43.11551,38.0378 7.48406,30.34721 -107.55995,179.34457 -169.41575,153.90548 -61.8561,-25.43908 -38.85586,-212.2949 -12.18687,-228.59605 26.66841,-16.30086 38.47563,5.53446 57.33352,3.3237 15.91116,-1.86541 24.1551,-20.08839 42.65402,-19.01891 z m -311.59583,0 c 17.11094,0.29544 25.39329,17.22263 40.71506,19.01891 18.85787,2.21076 30.6651,-19.62456 57.33351,-3.3237 26.669,16.30115 49.66923,203.15667 -12.18686,228.59605 -61.85581,25.43909 -176.89981,-123.55827 -169.41575,-153.90548 7.48436,-30.34663 31.17769,-23.19936 43.02333,-38.0378 11.84622,-14.83755 -0.0679,-38.33323 27.051,-49.48605 5.0848,-2.09053 9.53087,-2.92987 13.47971,-2.86193 z m 158.15212,182.71051 c 1.35163,8.73259 3.16622,17.3021 5.53948,25.57411 3.86819,13.48206 9.51403,26.99308 17.91101,38.49956 -8.70246,0.53947 -17.62207,0.61038 -26.77418,0.18317 -9.15212,0.42631 -18.06876,0.35511 -26.77417,-0.18317 8.39697,-11.50648 14.04281,-25.0175 17.91099,-38.49956 2.37327,-8.27201 4.18785,-16.84152 5.53949,-25.57411 1.1076,0.0295 2.20575,0.0916 3.32369,0.0916 1.11794,0 2.21609,-0.0709 3.32369,-0.0916 z" />
  </g>
  <g id="steamlogo" transform="translate(1914.3479,-47.765855)">
    <path d="m 453.875,502.36218 c 0,8.1335 -2.875,15.0665 -8.625,20.8 -5.717,5.75 -12.6415,8.625 -20.775,8.625 -8.1335,0 -15.075,-2.875 -20.825,-8.625 -5.7335,-5.7335 -8.6,-12.6665 -8.6,-20.8 0,-8.1335 2.8665,-15.075 8.6,-20.825 5.75,-5.7335 12.692,-8.6 20.825,-8.6 8.133,0 15.058,2.8665 20.775,8.6 5.75,5.75 8.625,12.6915 8.625,20.825 z m -7.4,0 c 0,-6.0835 -2.15,-11.275 -6.45,-15.575 -4.283,-4.2835 -9.467,-6.425 -15.55,-6.425 -6.0835,0 -11.275,2.1415 -15.575,6.425 -4.283,4.3 -6.425,9.4915 -6.425,15.575 0,6.0835 2.1415,11.2665 6.425,15.55 4.3005,4.3 9.4915,6.45 15.575,6.45 6.083,0 11.2665,-2.15 15.55,-6.45 4.3,-4.2835 6.45,-9.4665 6.45,-15.55 z m -176.4,20.825 c 1.9835,-28.1835 13.225,-52.525 33.725,-73.025 22.7,-22.7 50.1,-34.05 82.2,-34.05 32.1,0 59.5,11.35 82.2,34.05 22.6995,22.7 34.05,50.1 34.05,82.2 0,32.1 -11.35,59.5 -34.05,82.2 -22.7,22.7 -50.1,34.05 -82.2,34.05 -32.1,0 -59.5,-11.35 -82.2,-34.05 -14.967,-14.967 -25,-31.975 -30.1,-51.0255 l 45.175,18.825 c 1.15,6.4 4.1415,12.0165 8.975,16.85 6.3835,6.3835 14.0915,9.5745 23.125,9.5745 9.05,0 16.75,-3.1915 23.1,-9.5745 6.3835,-6.35 9.575,-14.0505 9.575,-23.1 0,-0.683 -0.0165,-1.3585 -0.05,-2.025 l 38.65,-28.25 c 0.7335,0.033 1.475,0.05 2.225,0.05 12.033,0 22.283,-4.25 30.75,-12.75 8.5165,-8.483 12.775,-18.741 12.775,-30.7745 0,-12.0335 -4.2585,-22.3 -12.775,-30.8 -8.467,-8.4835 -18.717,-12.725 -30.75,-12.725 -12.0505,0 -22.325,4.2415 -30.825,12.725 -8.483,8.5 -12.725,18.7665 -12.725,30.8 0,0.0665 0,0.1335 0,0.2 l -28.125,40.925 c -0.6,-0.033 -1.2085,-0.05 -1.825,-0.05 -7.0495,0 -13.287,1.946 -18.7125,5.8375 l -5.9125,-2.4255 c -0.645,-0.269 -1.291,-0.54 -1.9375,-0.8125 l -54.3375,-22.8495 z m 58.25,63.125 16.725,6.9745 c 1.55,0.4335 3.1915,0.6505 4.925,0.6505 4.9335,0 9.1335,-1.7415 12.6,-5.225 3.4835,-3.467 5.225,-7.667 5.225,-12.6 0,-4.9165 -1.7415,-9.1165 -5.225,-12.6 -1.863,-1.8765 -3.938,-3.2475 -6.225,-4.1125 l -14.825,-6.2375 c 2.9005,-1.1995 6.0505,-1.8 9.45,-1.8 6.85,0 12.6835,2.4165 17.5,7.25 4.8335,4.8335 7.25,10.6665 7.25,17.5 0,6.85 -2.4165,12.683 -7.25,17.5 -4.8165,4.8335 -10.65,7.25 -17.5,7.25 -6.85,0 -12.6915,-2.4165 -17.525,-7.25 -2.2165,-2.217 -3.925,-4.65 -5.125,-7.3 z" style="fill:#ffffff;fill-rule:evenodd" />
    <path d="m 446.475,502.36218 c 0,6.0835 -2.15,11.2665 -6.45,15.55 -4.283,4.3 -9.467,6.45 -15.55,6.45 -6.0835,0 -11.275,-2.15 -15.575,-6.45 -4.283,-4.2835 -6.425,-9.467 -6.425,-15.55 0,-6.083 2.1415,-11.275 6.425,-15.575 4.3005,-4.2835 9.4915,-6.425 15.575,-6.425 6.083,0 11.2665,2.1415 15.55,6.425 4.3,4.3 6.45,9.4915 6.45,15.575 z" style="fill:none" />
    <path d="m 453.875,502.36218 c 0,-8.1335 -2.875,-15.075 -8.625,-20.825 -5.717,-5.7335 -12.6415,-8.6 -20.775,-8.6 -8.1335,0 -15.075,2.8665 -20.825,8.6 -5.7335,5.75 -8.6,12.6915 -8.6,20.825 0,8.1335 2.8665,15.0665 8.6,20.8 5.75,5.75 12.692,8.625 20.825,8.625 8.133,0 15.058,-2.875 20.775,-8.625 5.75,-5.7335 8.625,-12.6665 8.625,-20.8 z m -180.175,61.175 c -2.6335,-9.8495 -3.95,-20.2415 -3.95,-31.175 0,-3.1 0.1085,-6.1585 0.325,-9.175 l 54.3375,22.85 c 0.6465,0.2725 1.2925,0.5435 1.9375,0.8125 l 5.9125,2.4255 c 5.4255,-3.8915 11.663,-5.8375 18.7125,-5.8375 0.6165,0 1.225,0.0165 1.825,0.05 l 28.125,-40.925 c 0,-0.0665 0,-0.1335 0,-0.2 0,-12.0335 4.2415,-22.3 12.725,-30.8 8.5,-8.4835 18.775,-12.725 30.825,-12.725 12.033,0 22.283,4.2415 30.75,12.725 8.5165,8.5 12.775,18.7665 12.775,30.8 0,12.0335 -4.2585,22.2915 -12.775,30.775 -8.467,8.5 -18.717,12.75 -30.75,12.75 -0.75,0 -1.4915,-0.0165 -2.225,-0.05 l -38.65,28.25 c 0.033,0.6665 0.05,1.342 0.05,2.025 0,9.05 -3.1915,16.75 -9.575,23.1 -6.35,6.3835 -14.05,9.5745 -23.1,9.5745 -9.0335,0 -16.7415,-3.1915 -23.125,-9.5745 -4.8335,-4.8335 -7.825,-10.45 -8.975,-16.85 l -45.175,-18.8255 z m 54.625,22.775 c 1.2,2.65 2.9085,5.083 5.125,7.3 4.8335,4.8335 10.675,7.25 17.525,7.25 6.85,0 12.6835,-2.4165 17.5,-7.25 4.8335,-4.817 7.25,-10.65 7.25,-17.5 0,-6.8335 -2.4165,-12.6665 -7.25,-17.5 -4.8165,-4.8335 -10.65,-7.25 -17.5,-7.25 -3.3995,0 -6.55,0.6 -9.45,1.8 l 14.825,6.238 c 2.287,0.8645 4.362,2.236 6.225,4.1125 3.4835,3.4835 5.225,7.6835 5.225,12.6 0,4.933 -1.7415,9.1335 -5.225,12.6 -3.4665,3.4835 -7.6665,5.225 -12.6,5.225 -1.7335,0 -3.375,-0.217 -4.925,-0.6505 l -16.725,-6.975 z" style="fill:none" />
  </g>
</svg>
