<?xml version="1.0" encoding="UTF-8" standalone="no"?>
<svg
   xmlns:dc="http://purl.org/dc/elements/1.1/"
   xmlns:cc="http://creativecommons.org/ns#"
   xmlns:rdf="http://www.w3.org/1999/02/22-rdf-syntax-ns#"
   xmlns:svg="http://www.w3.org/2000/svg"
   xmlns="http://www.w3.org/2000/svg"
   version="1.1"
   id="svg3355"
   viewBox="0 0 1000.0001 1000.0001"
   height="282.22226mm"
   width="282.22226mm">
  <defs
     id="defs3357" />
  <metadata
     id="metadata3360">
    <rdf:RDF>
      <cc:Work
         rdf:about="">
        <dc:format>image/svg+xml</dc:format>
        <dc:type
           rdf:resource="http://purl.org/dc/dcmitype/StillImage" />
        <dc:title></dc:title>
      </cc:Work>
    </rdf:RDF>
  </metadata>
  <g
     transform="translate(275.21433,135.47722)"
     id="layer3">
    <rect
       y="-135.47722"
       x="-275.21432"
       height="1000"
       width="1000"
       id="rect4723"
       style="fill:#415c78;fill-opacity:1;stroke:#000000;stroke-width:0;stroke-miterlimit:0;stroke-dasharray:none" />
  </g>
  <g
     transform="translate(275.21433,135.47722)"
     id="layer1">
    <g
       transform="translate(-152.35718,-144.98234)"
       id="g4725">
      <path
         style="fill:#ffffff"
         id="tux"
         d="m 377.24284,101.46567 c 79.8,0 126.6,48.7 135.4,114.3 8.8,65.6 -5.4,77.7 16.7,144.9 22.1,67.2 121.1,182.4 118.8,288.7 -0.7,33.1 -4.5,61.7 -11.2,86.8 -8.1,-13.5 -20.2,-23 -29,-27.1 -6.9,-3.2 -10.2,-4.7 -11.7,-5.3 -0.2,-1.7 -1.1,-5.6 -2.7,-13.2 -2.2,-10.5 -10.5,-26.9 -24.7,-37.7 0.1,-3.3 0.3,-6.5 0.4,-9.9 1.6,-82.4 -83.6,-171.8 -99.2,-223.9 -15.7,-52.1 -8.9,-57.5 -11.4,-70.4 -2.6,-13 -12.6,-28 -27,-40.1 -1.4,-1.1 -2.7,-1.6 -4.1,-1.7 -13.1,-0.1 -26.2,47.6 -51.6,47.6 -25.4,0 -38.6,-58.2 -53.2,-46 -14.4,12 -24.4,27.1 -27,40.1 -2.6,13 4.2,18.3 -11.4,70.4 -15.7,52.1 -100.8,141.4 -99.2,223.9 0.1,3.4 0.2,6.6 0.4,9.8 -14.3,10.8 -22.7,27.3 -24.8,37.8 -1.6,7.6 -2.5,11.5 -2.7,13.2 -1.5,0.6 -4.9,2.2 -11.7,5.4 -8.8,4.1 -20.8,13.6 -28.9,27.1 -6.7,-25.1 -10.5,-53.7 -11.3,-86.9 -2.3,-106.3 96.8,-221.5 118.9,-288.7 22.1,-67.2 7.8,-79.2 16.6,-144.9 8.8,-65.6 55.8,-114.3 135.5,-114.3 z m 156.8,568.9 c 3.4,0.2 7.2,1.1 11.4,2.9 27.1,11.2 15.2,34.6 27.1,49.5 11.8,14.8 35.6,7.7 43.1,38 7.5,30.3 -107.6,179.3 -169.4,153.9 -61.9,-25.4 -38.9,-212.3 -12.2,-228.6 26.7,-16.3 38.5,5.5 57.3,3.3 15.9,-1.9 24.2,-20.1 42.7,-19 z m -311.6,0 c 17.1,0.3 25.4,17.2 40.7,19 18.9,2.2 30.7,-19.6 57.3,-3.3 26.7,16.3 49.7,203.2 -12.2,228.6 -61.9,25.4 -176.9,-123.6 -169.4,-153.9 7.5,-30.3 31.2,-23.2 43,-38 11.8,-14.8 -0.1,-38.3 27.1,-49.5 5.1,-2.1 9.5,-2.9 13.5,-2.9 z m 158.2,182.7 c 1.4,8.7 3.2,17.3 5.5,25.6 3.9,13.5 9.5,27 17.9,38.5 -8.7,0.5 -17.6,0.6 -26.8,0.2 -9.2,0.4 -18.1,0.4 -26.8,-0.2 8.4,-11.5 14,-25 17.9,-38.5 2.4,-8.3 4.2,-16.8 5.5,-25.6 1.1,0 2.2,0.1 3.3,0.1 1.1,0 2.2,-0.1 3.3,-0.1 z" />
      <path
         style="fill:#ffffff"
         id="steam"
         d="m 445.34284,521.56567 c 0,8.1 -2.9,15.1 -8.6,20.8 -5.7,5.8 -12.6,8.6 -20.8,8.6 -8.1,0 -15.1,-2.9 -20.8,-8.6 -5.7,-5.7 -8.6,-12.7 -8.6,-20.8 0,-8.1 2.9,-15.1 8.6,-20.8 5.8,-5.7 12.7,-8.6 20.8,-8.6 8.1,0 15.1,2.9 20.8,8.6 5.8,5.8 8.6,12.7 8.6,20.8 z m -7.4,0 c 0,-6.1 -2.1,-11.3 -6.4,-15.6 -4.3,-4.3 -9.5,-6.4 -15.5,-6.4 -6.1,0 -11.3,2.1 -15.6,6.4 -4.3,4.3 -6.4,9.5 -6.4,15.6 0,6.1 2.1,11.3 6.4,15.6 4.3,4.3 9.5,6.5 15.6,6.5 6.1,0 11.3,-2.1 15.6,-6.4 4.3,-4.3 6.5,-9.5 6.5,-15.5 z m -176.4,20.8 c 2,-28.2 13.2,-52.5 33.7,-73 22.7,-22.7 50.1,-34 82.2,-34 32.1,0 59.5,11.4 82.2,34.1 22.7,22.7 34.1,50.1 34.1,82.2 0,32.1 -11.3,59.5 -34,82.2 -22.7,22.7 -50.1,34.1 -82.2,34.1 -32.1,0 -59.5,-11.3 -82.2,-34 -15,-15 -25,-32 -30.1,-51 l 45.2,18.8 c 1.2,6.4 4.1,12 9,16.9 6.4,6.4 14.1,9.6 23.1,9.6 9.1,0 16.8,-3.2 23.1,-9.6 6.4,-6.3 9.6,-14.1 9.6,-23.1 0,-0.7 0,-1.4 0,-2 l 38.7,-28.2 c 0.7,0 1.5,0.1 2.2,0.1 12,0 22.3,-4.2 30.8,-12.7 8.5,-8.5 12.8,-18.7 12.8,-30.8 0,-12 -4.3,-22.3 -12.8,-30.8 -8.5,-8.5 -18.7,-12.7 -30.7,-12.7 -12.1,0 -22.3,4.2 -30.8,12.7 -8.5,8.5 -12.7,18.8 -12.7,30.8 0,0.1 0,0.1 0,0.2 l -28.1,40.9 c -0.6,0 -1.2,0 -1.8,0 -7,0 -13.3,1.9 -18.7,5.8 l -5.9,-2.4 c -0.6,-0.3 -1.3,-0.5 -1.9,-0.8 l -54.3,-22.8 z m 58.3,63.1 16.7,7 c 1.6,0.4 3.2,0.7 4.9,0.7 4.9,0 9.1,-1.7 12.6,-5.2 3.5,-3.5 5.2,-7.7 5.2,-12.6 0,-4.9 -1.7,-9.1 -5.2,-12.6 -1.9,-1.9 -3.9,-3.2 -6.2,-4.1 l -14.8,-6.2 c 2.9,-1.2 6.1,-1.8 9.5,-1.8 6.9,0 12.7,2.4 17.5,7.3 4.8,4.8 7.3,10.7 7.3,17.5 0,6.9 -2.4,12.7 -7.2,17.5 -4.8,4.8 -10.6,7.3 -17.5,7.3 -6.8,0 -12.7,-2.4 -17.5,-7.2 -2.2,-2.2 -3.9,-4.6 -5.1,-7.3 z" />
    </g>
  </g>
</svg>
